<svg width="108" height="140" viewBox="0 0 108 140" fill="none" xmlns="http://www.w3.org/2000/svg">
<g clip-path="url(#clip0)">
<path d="M53.9 0C33 17.6 2.06791e-05 15.8 2.06791e-05 15.8V99.7C2.06791e-05 99.7 -1.29998 124.9 19.8 124.9C40.2 124.9 43.8 126.7 53.9 139.9C64 126.7 67.6 124.9 88 124.9C109.1 124.9 107.8 99.7 107.8 99.7V15.8C107.9 15.8 74.9 17.6 53.9 0Z" fill="#E5E3E8"/>
<path fill-rule="evenodd" clip-rule="evenodd" d="M51.8858 42.9036C41.1579 43.5711 35.552 49.6462 35.0625 60.6322H45.8844C46.0199 56.8267 48.1439 53.9818 52.0987 53.5624C55.9808 53.1503 59.6637 54.0749 60.7791 56.729C61.984 59.596 59.2792 62.9277 57.9932 64.3262C55.6129 66.9194 51.7466 68.8111 49.7424 71.609C47.7779 74.3506 47.4285 77.9579 47.2773 82.3728H56.8151C56.9487 79.55 57.1368 76.8462 58.421 75.0918C60.5099 72.2414 63.6296 70.9056 66.244 68.6544C68.7414 66.5027 71.3687 63.9095 71.8149 59.8956C73.1544 47.8827 63.3484 42.1883 51.8858 42.9036Z" fill="#1A171C"/>
<path d="M52.1309 98.1561C55.4566 98.1561 58.1526 95.5009 58.1526 92.2257C58.1526 88.9504 55.4566 86.2952 52.1309 86.2952C48.8053 86.2952 46.1093 88.9504 46.1093 92.2257C46.1093 95.5009 48.8053 98.1561 52.1309 98.1561Z" fill="#1A171C"/>
</g>
<defs>
<clipPath id="clip0">
<rect width="107.9" height="140" fill="white"/>
</clipPath>
</defs>
</svg>
