<svg width="80" height="80" viewBox="0 0 80 80" fill="none" xmlns="http://www.w3.org/2000/svg">
<g filter="url(#filter0_d)">
<circle cx="40" cy="36" r="36" fill="#EC9844"/>
<path fill-rule="evenodd" clip-rule="evenodd" d="M49.6588 20.8416H30.401V23.0757H23.7051V33.5551C23.7051 37.6052 28.2254 40.938 32.6611 41.2847C34.1173 42.8449 36.6787 43.9782 38.9583 44.4614V47.2005C36.7783 47.8701 32.8843 49.4433 32.6611 51.1574H47.6218C47.3965 49.4433 43.1059 47.8679 40.9216 47.2005V44.4614C43.2099 43.9782 45.8861 42.8449 47.3444 41.2847C51.778 40.938 56.099 37.6052 56.099 33.5551V23.0757H49.6588V20.8416ZM25.7615 25.0606H30.245V34.0882C30.245 35.8694 30.7044 37.564 31.5126 39.0895C28.1582 38.0212 25.7615 35.2692 25.7615 32.0491V25.0606ZM43.3226 36.071L39.9768 34.2269L36.6267 36.071L37.2659 32.1704L34.5572 29.4097L38.2996 28.8398L39.9768 25.2947L41.6497 28.8398L45.392 29.4097L42.6833 32.1704L43.3226 36.071ZM48.2957 39.3777C49.1084 37.7829 49.5743 36.019 49.5743 34.1532V25.1191H54.0685V32.0231C54.0685 35.3884 51.661 38.2618 48.2957 39.3777Z" fill="white"/>
</g>
<defs>
<filter id="filter0_d" x="0" y="0" width="80" height="80" filterUnits="userSpaceOnUse" color-interpolation-filters="sRGB">
<feFlood flood-opacity="0" result="BackgroundImageFix"/>
<feColorMatrix in="SourceAlpha" type="matrix" values="0 0 0 0 0 0 0 0 0 0 0 0 0 0 0 0 0 0 127 0"/>
<feOffset dy="4"/>
<feGaussianBlur stdDeviation="2"/>
<feColorMatrix type="matrix" values="0 0 0 0 0.929412 0 0 0 0 0.847059 0 0 0 0 0.580392 0 0 0 1 0"/>
<feBlend mode="normal" in2="BackgroundImageFix" result="effect1_dropShadow"/>
<feBlend mode="normal" in="SourceGraphic" in2="effect1_dropShadow" result="shape"/>
</filter>
</defs>
</svg>
