<svg width="29" height="28" viewBox="0 0 29 28" fill="none" xmlns="http://www.w3.org/2000/svg">
<path d="M14.0563 7.76254C12.421 7.79216 10.8628 8.46256 9.71681 9.62947C8.57085 10.7964 7.92878 12.3665 7.92878 14.002C7.92878 15.6376 8.57085 17.2077 9.71681 18.3746C10.8628 19.5415 12.421 20.2119 14.0563 20.2416C15.6915 20.2119 17.2498 19.5415 18.3958 18.3746C19.5417 17.2077 20.1838 15.6376 20.1838 14.002C20.1838 12.3665 19.5417 10.7964 18.3958 9.62947C17.2498 8.46256 15.6915 7.79216 14.0563 7.76254ZM14.0563 18.5875C12.8402 18.5875 11.6738 18.1044 10.8139 17.2445C9.95394 16.3845 9.47083 15.2182 9.47083 14.002C9.47083 12.7859 9.95394 11.6196 10.8139 10.7596C11.6738 9.89969 12.8402 9.41658 14.0563 9.41658C15.2724 9.41658 16.4388 9.89969 17.2987 10.7596C18.1587 11.6196 18.6418 12.7859 18.6418 14.002C18.6418 15.2182 18.1587 16.3845 17.2987 17.2445C16.4388 18.1044 15.2724 18.5875 14.0563 18.5875ZM22.8342 0H5.27738C4.58421 0.0001344 3.89785 0.136798 3.2575 0.402186C2.61715 0.667575 2.03533 1.05649 1.54528 1.54673C1.05523 2.03697 0.666543 2.61893 0.401403 3.25939C0.136263 3.89985 -0.000134327 4.58626 9.92663e-08 5.27943V22.7226C9.92663e-08 25.6397 2.36438 28 5.27738 28H22.8342C25.7513 28 28.1116 25.6356 28.1116 22.7236V5.28147C28.1116 2.36438 25.7503 0 22.8342 0ZM20.4391 3.14637C20.4391 2.52712 20.9406 2.02354 21.5619 2.02354H24.8577C25.4759 2.02354 25.9795 2.52508 25.9795 3.14637V6.44217C25.9795 7.06039 25.478 7.56397 24.8557 7.56397H21.5599C20.9427 7.56397 20.4381 7.06244 20.4381 6.44115V3.14534L20.4391 3.14637ZM26.9898 22.7236C26.9898 25.0143 25.1269 26.8792 22.8342 26.8792H5.27738C4.17558 26.8781 3.11923 26.44 2.34014 25.6609C1.56105 24.8818 1.12289 23.8254 1.1218 22.7236V8.76152H1.96827C2.07267 8.24974 2.52508 7.86285 3.06858 7.86285H6.58751C7.12999 7.86285 7.58444 8.24872 7.6868 8.76049H9.22006C10.4913 7.58649 12.1883 6.86796 14.0563 6.86796C15.9243 6.86796 17.6182 7.58444 18.8905 8.75844H26.9887V22.7226H26.9908L26.9898 22.7236Z" fill="#E5E3E8"/>
</svg>
