<svg width="15" height="15" viewBox="0 0 15 15" fill="none" xmlns="http://www.w3.org/2000/svg">
<path d="M7.53619 4.07507C6.67775 4.09062 5.85973 4.44255 5.25814 5.05513C4.65656 5.6677 4.3195 6.49197 4.3195 7.35055C4.3195 8.20912 4.65656 9.03339 5.25814 9.64597C5.85973 10.2585 6.67775 10.6105 7.53619 10.626C8.39463 10.6105 9.21265 10.2585 9.81423 9.64597C10.4158 9.03339 10.7529 8.20912 10.7529 7.35055C10.7529 6.49197 10.4158 5.6677 9.81423 5.05513C9.21265 4.44255 8.39463 4.09062 7.53619 4.07507ZM7.53619 9.75772C6.89777 9.75772 6.28549 9.50411 5.83406 9.05268C5.38262 8.60124 5.12901 7.98897 5.12901 7.35055C5.12901 6.71212 5.38262 6.09985 5.83406 5.64842C6.28549 5.19698 6.89777 4.94337 7.53619 4.94337C8.17461 4.94337 8.78689 5.19698 9.23832 5.64842C9.68975 6.09985 9.94336 6.71212 9.94336 7.35055C9.94336 7.98897 9.68975 8.60124 9.23832 9.05268C8.78689 9.50411 8.17461 9.75772 7.53619 9.75772ZM12.1442 6.10352e-05H2.92763C2.56374 0.00013159 2.20344 0.071874 1.86728 0.211192C1.53112 0.35051 1.22569 0.554675 0.968436 0.81203C0.71118 1.06939 0.507134 1.37489 0.367946 1.7111C0.228759 2.04732 0.157156 2.40765 0.157227 2.77154V11.9285C0.157227 13.4598 1.39843 14.6989 2.92763 14.6989H12.1442C13.6756 14.6989 14.9146 13.4577 14.9146 11.929V2.77261C14.9146 1.24126 13.675 6.10352e-05 12.1442 6.10352e-05ZM10.8869 1.65177C10.8869 1.32669 11.1502 1.06234 11.4763 1.06234H13.2065C13.531 1.06234 13.7954 1.32562 13.7954 1.65177V3.38193C13.7954 3.70647 13.5321 3.97083 13.2054 3.97083H11.4753C11.1513 3.97083 10.8864 3.70754 10.8864 3.38139V1.65123L10.8869 1.65177ZM14.3257 11.929C14.3257 13.1315 13.3478 14.1105 12.1442 14.1105H2.92763C2.34923 14.11 1.79469 13.8799 1.3857 13.4709C0.976713 13.062 0.746694 12.5074 0.746125 11.929V4.59949H1.19049C1.24529 4.33083 1.48279 4.12772 1.7681 4.12772H3.61539C3.90017 4.12772 4.13874 4.33029 4.19247 4.59895H4.99737C5.66472 3.98265 6.55559 3.60545 7.53619 3.60545C8.51679 3.60545 9.40605 3.98157 10.0739 4.59788H14.3252V11.9285H14.3263L14.3257 11.929Z" fill="#4B4554"/>
</svg>
