<svg width="110" height="158" viewBox="0 0 110 158" fill="none" xmlns="http://www.w3.org/2000/svg">
<g clip-path="url(#clip0)">
<path d="M0 21.6217L36.9534 53.2626C36.4169 54.4826 35.9238 55.7198 35.4738 56.9831C34.1674 60.6343 33.0945 64.8046 32.4023 69.2086L18.6021 52.5445L33.7348 102.926L6.92172 128L0 21.6217Z" fill="#E5E3E8"/>
<path d="M72.6436 117.765C74.0192 117.695 75.2911 117.6 76.4159 117.488L76.1131 121.952L72.6436 117.765Z" fill="#E5E3E8"/>
<path d="M82.4378 29.3827L77.1686 106.482C72.981 107.226 68.3867 107.659 63.9741 107.304L44.0828 83.2943C44.3683 77.0647 46.1247 70.2209 48.9885 63.5587L63.1435 75.6717L61.4044 43.9789C64.1644 40.9074 67.1667 38.1733 70.3421 35.9151C73.7337 33.5184 78.1117 31.1045 82.4378 29.3827Z" fill="#E5E3E8"/>
<path d="M84.445 0L83.597 12.4245C76.1475 14.7519 67.9539 18.9569 60.34 24.7019L60.0286 19.0261L84.445 0Z" fill="#E5E3E8"/>
<path d="M97.9683 40.0335C99.3872 35.8718 100.304 31.0352 97.9683 28.578C95.2688 25.7401 88.9181 26.787 82.4377 29.374C78.1116 31.0958 73.7336 33.5098 70.3419 35.9237C67.158 38.1819 64.1643 40.916 61.4043 43.9875C56.2908 49.6806 52.0167 56.5158 48.9884 63.5587C46.1246 70.2208 44.3768 77.0647 44.0827 83.2943C43.7366 90.7697 45.493 97.3627 49.9488 101.706C53.626 105.288 58.6615 106.871 63.974 107.295C68.3866 107.65 72.9809 107.217 77.1685 106.473C84.592 105.158 90.6918 102.883 92.0502 102.364L94.6805 112.885C91.5657 114.226 86.98 115.878 81.2783 116.83C80.5515 116.951 78.8211 117.245 76.4158 117.479C75.291 117.591 74.0191 117.687 72.6434 117.756C64.346 118.145 52.034 117.297 43.3645 110.254C32.0215 101.04 30.1094 83.8307 32.4022 69.1999C33.0944 64.7959 34.1586 60.617 35.4738 56.9744C35.9237 55.7112 36.4168 54.4739 36.9533 53.254C42.0148 41.712 50.7102 31.961 60.3401 24.6932C67.9539 18.9482 76.1475 14.7432 83.597 12.4158C92.7251 9.56058 100.746 9.51732 105.201 12.9003C107.365 14.5442 108.507 16.8457 109.147 18.8184L97.9683 40.0335Z" fill="white"/>
</g>
<path d="M9.45518 154H7.29646L3.09416 147.106V154H0.935444V143.523H3.09416L7.30366 150.431V143.523H9.45518V154ZM17.3849 151.841H13.5999L12.8803 154H10.5849L14.485 143.523H16.4854L20.4071 154H18.1116L17.3849 151.841ZM14.1828 150.093H16.802L15.4852 146.171L14.1828 150.093ZM24.6669 149.798L23.5444 151.007V154H21.3857V143.523H23.5444V148.272L24.4942 146.97L27.1639 143.523H29.8191L26.0989 148.179L29.927 154H27.3581L24.6669 149.798ZM36.655 151.841H32.8701L32.1505 154H29.8551L33.7551 143.523H35.7556L39.6772 154H37.3818L36.655 151.841ZM33.4529 150.093H36.0722L34.7553 146.171L33.4529 150.093ZM43.4766 143.523L46.1678 151.122L48.8446 143.523H51.6797V154H49.5138V151.136L49.7297 146.193L46.9017 154H45.4194L42.5987 146.2L42.8146 151.136V154H40.6558V143.523H43.4766ZM59.6094 151.841H55.8244L55.1049 154H52.8094L56.7095 143.523H58.7099L62.6316 154H60.3361L59.6094 151.841ZM56.4073 150.093H59.0265L57.7097 146.171L56.4073 150.093ZM75.0874 150.733C74.9675 151.836 74.5717 152.681 73.9001 153.266C73.2333 153.851 72.3434 154.144 71.2305 154.144C70.4533 154.144 69.7649 153.95 69.1653 153.561C68.5705 153.172 68.1099 152.623 67.7837 151.913C67.4575 151.198 67.292 150.383 67.2872 149.467V148.107C67.2872 147.176 67.4503 146.351 67.7765 145.631C68.1027 144.912 68.5705 144.358 69.1797 143.969C69.7937 143.576 70.4989 143.379 71.2952 143.379C72.4178 143.379 73.3028 143.684 73.9505 144.293C74.6029 144.897 74.9818 145.735 75.0874 146.804H74.1951C73.9744 145.025 73.0078 144.135 71.2952 144.135C70.3454 144.135 69.5874 144.49 69.0214 145.2C68.4601 145.91 68.1795 146.891 68.1795 148.143V149.424C68.1795 150.632 68.4529 151.597 68.9998 152.316C69.5515 153.036 70.295 153.396 71.2305 153.396C72.1563 153.396 72.8543 153.175 73.3244 152.734C73.7945 152.287 74.0848 151.621 74.1951 150.733H75.0874ZM76.5625 149.992C76.5625 149.244 76.7064 148.57 76.9942 147.97C77.2869 147.37 77.697 146.905 78.2247 146.574C78.7572 146.238 79.3592 146.07 80.0308 146.07C81.067 146.07 81.9065 146.435 82.5493 147.164C83.1922 147.888 83.5136 148.85 83.5136 150.05V150.229C83.5136 150.983 83.3673 151.661 83.0746 152.266C82.7868 152.865 82.379 153.328 81.8514 153.655C81.3237 153.981 80.7216 154.144 80.0452 154.144C79.0138 154.144 78.1743 153.782 77.5267 153.057C76.8839 152.328 76.5625 151.364 76.5625 150.165V149.992ZM77.426 150.229C77.426 151.16 77.6658 151.925 78.1456 152.525C78.6301 153.12 79.2633 153.417 80.0452 153.417C80.8224 153.417 81.4508 153.12 81.9305 152.525C82.415 151.925 82.6573 151.136 82.6573 150.157V149.992C82.6573 149.397 82.5469 148.853 82.3263 148.359C82.1056 147.864 81.7962 147.483 81.398 147.214C80.9999 146.941 80.5441 146.804 80.0308 146.804C79.2633 146.804 78.6373 147.106 78.1528 147.711C77.6682 148.311 77.426 149.097 77.426 150.071V150.229ZM88.896 146.948C88.7137 146.915 88.5194 146.898 88.3131 146.898C87.7758 146.898 87.3201 147.049 86.9459 147.351C86.5766 147.649 86.3127 148.083 86.1544 148.654V154H85.2981V146.214H86.14L86.1544 147.452C86.6101 146.531 87.3417 146.07 88.3491 146.07C88.589 146.07 88.7784 146.101 88.9176 146.164L88.896 146.948ZM96.5234 150.186C96.5234 151.4 96.2548 152.364 95.7175 153.079C95.1802 153.789 94.4607 154.144 93.5588 154.144C92.4938 154.144 91.6783 153.77 91.1123 153.021V156.993H90.256V146.214H91.0547L91.0979 147.315C91.6591 146.485 92.4723 146.07 93.5372 146.07C94.4679 146.07 95.197 146.423 95.7247 147.128C96.2572 147.833 96.5234 148.812 96.5234 150.064V150.186ZM95.66 150.035C95.66 149.042 95.4561 148.258 95.0483 147.682C94.6406 147.106 94.0721 146.819 93.3429 146.819C92.8152 146.819 92.3619 146.946 91.9829 147.2C91.604 147.454 91.3137 147.824 91.1123 148.308V152.043C91.3185 152.489 91.6136 152.829 91.9973 153.065C92.3811 153.3 92.8344 153.417 93.3573 153.417C94.0817 153.417 94.6454 153.129 95.0483 152.554C95.4561 151.973 95.66 151.134 95.66 150.035Z" fill="white"/>
<defs>
<clipPath id="clip0">
<rect width="109.147" height="128" fill="white"/>
</clipPath>
</defs>
</svg>
