<svg width="42" height="28" viewBox="0 0 42 28" fill="none" xmlns="http://www.w3.org/2000/svg">
<path d="M1.33934 3.00067L18.8393 12.4017C19.4273 12.7167 20.188 12.866 20.9533 12.866C21.7187 12.866 22.4793 12.7167 23.0673 12.4017L40.5673 3.00067C41.7083 2.387 42.7863 0 40.6933 0H1.21567C-0.87733 0 0.20067 2.387 1.33934 3.00067V3.00067ZM41.097 8.141L23.0673 17.5373C22.274 17.9527 21.7187 18.0017 20.9533 18.0017C20.188 18.0017 19.6327 17.9527 18.8393 17.5373C18.046 17.122 2.19567 8.813 0.90067 8.13867C-0.00932946 7.66267 3.7708e-06 8.22033 3.7708e-06 8.64967V25.6667C3.7708e-06 26.6467 1.32067 28 2.33334 28H39.6667C40.6793 28 42 26.6467 42 25.6667V8.652C42 8.22267 42.0093 7.665 41.097 8.141V8.141Z" fill="#E5E3E8"/>
</svg>
