<svg width="489" height="667" viewBox="0 0 489 667" fill="none" xmlns="http://www.w3.org/2000/svg">
<g opacity="0.5">
<g clip-path="url(#clip0)">
<path d="M0.579102 96.7424L165.92 238.314C163.52 243.772 161.313 249.308 159.3 254.96C153.455 271.297 148.654 289.956 145.557 309.661L83.8109 235.101L151.519 460.524L31.5491 572.712L0.579102 96.7424Z" fill="#E5E3E8"/>
<path d="M325.609 526.916C331.765 526.606 337.455 526.18 342.488 525.677L341.133 545.652L325.609 526.916Z" fill="#E5E3E8"/>
<path d="M369.432 131.468L345.856 476.434C327.119 479.764 306.563 481.699 286.82 480.112L197.82 372.685C199.097 344.812 206.956 314.19 219.77 284.382L283.103 338.579L275.322 196.775C287.671 183.033 301.105 170.799 315.312 160.695C330.487 149.972 350.076 139.171 369.432 131.468Z" fill="#E5E3E8"/>
<path d="M378.413 0L374.619 55.5911C341.287 66.0048 304.627 84.819 270.56 110.524L269.166 85.1287L378.413 0Z" fill="#E5E3E8"/>
<path d="M438.921 179.122C445.27 160.502 449.373 138.861 438.921 127.867C426.842 115.169 398.427 119.854 369.432 131.429C350.076 139.132 330.487 149.933 315.312 160.734C301.066 170.838 287.671 183.071 275.322 196.814C252.443 222.287 233.319 252.87 219.769 284.382C206.956 314.19 199.136 344.812 197.819 372.685C196.271 406.132 204.13 435.631 224.066 455.065C240.519 471.092 263.05 478.176 286.819 480.073C306.563 481.661 327.119 479.725 345.856 476.396C379.071 470.511 406.363 460.33 412.441 458.007L424.21 505.082C410.273 511.082 389.756 518.476 364.244 522.735C360.992 523.276 353.25 524.593 342.488 525.638C337.455 526.141 331.765 526.567 325.609 526.877C288.484 528.619 233.396 524.825 194.606 493.313C143.854 452.084 135.299 375.085 145.558 309.622C148.655 289.918 153.416 271.219 159.3 254.921C161.314 249.269 163.52 243.734 165.92 238.275C188.567 186.633 227.473 143.004 270.56 110.485C304.627 84.7801 341.288 65.9658 374.619 55.5522C415.461 42.7771 451.347 42.5835 471.284 57.7201C480.962 65.0754 486.072 75.373 488.937 84.1994L438.921 179.122Z" fill="white"/>
</g>
<path d="M139.17 658.853H134.482L125.357 643.884V658.853H120.67V636.103H125.357L134.498 651.103V636.103H139.17V658.853ZM156.389 654.165H148.17L146.607 658.853H141.623L150.092 636.103H154.436L162.951 658.853H157.967L156.389 654.165ZM149.436 650.368H155.123L152.264 641.853L149.436 650.368ZM172.201 649.728L169.764 652.353V658.853H165.076V636.103H169.764V646.415L171.826 643.587L177.623 636.103H183.389L175.311 646.212L183.623 658.853H178.045L172.201 649.728ZM198.232 654.165H190.014L188.451 658.853H183.467L191.936 636.103H196.279L204.795 658.853H199.811L198.232 654.165ZM191.279 650.368H196.967L194.107 641.853L191.279 650.368ZM213.045 636.103L218.889 652.603L224.701 636.103H230.857V658.853H226.154V652.634L226.623 641.9L220.482 658.853H217.264L211.139 641.915L211.607 652.634V658.853H206.92V636.103H213.045ZM248.076 654.165H239.857L238.295 658.853H233.311L241.779 636.103H246.123L254.639 658.853H249.654L248.076 654.165ZM241.123 650.368H246.811L243.951 641.853L241.123 650.368ZM281.686 651.759C281.425 654.155 280.566 655.988 279.107 657.259C277.66 658.53 275.727 659.165 273.311 659.165C271.623 659.165 270.128 658.743 268.826 657.9C267.535 657.056 266.535 655.863 265.826 654.321C265.118 652.769 264.758 650.998 264.748 649.009V646.056C264.748 644.035 265.102 642.243 265.811 640.681C266.519 639.118 267.535 637.915 268.857 637.071C270.191 636.217 271.722 635.79 273.451 635.79C275.889 635.79 277.811 636.452 279.217 637.775C280.633 639.087 281.456 640.905 281.686 643.228H279.748C279.269 639.363 277.17 637.431 273.451 637.431C271.389 637.431 269.743 638.202 268.514 639.743C267.295 641.285 266.686 643.415 266.686 646.134V648.915C266.686 651.54 267.279 653.634 268.467 655.196C269.665 656.759 271.279 657.54 273.311 657.54C275.321 657.54 276.837 657.061 277.857 656.103C278.878 655.134 279.508 653.686 279.748 651.759H281.686ZM284.889 650.15C284.889 648.525 285.201 647.061 285.826 645.759C286.462 644.457 287.352 643.446 288.498 642.728C289.654 641.998 290.962 641.634 292.42 641.634C294.67 641.634 296.493 642.426 297.889 644.009C299.285 645.582 299.982 647.67 299.982 650.275V650.665C299.982 652.301 299.665 653.775 299.029 655.087C298.404 656.389 297.519 657.394 296.373 658.103C295.227 658.811 293.92 659.165 292.451 659.165C290.212 659.165 288.389 658.379 286.982 656.806C285.587 655.222 284.889 653.129 284.889 650.525V650.15ZM286.764 650.665C286.764 652.686 287.285 654.347 288.326 655.65C289.378 656.941 290.753 657.587 292.451 657.587C294.139 657.587 295.503 656.941 296.545 655.65C297.597 654.347 298.123 652.634 298.123 650.509V650.15C298.123 648.858 297.883 647.676 297.404 646.603C296.925 645.53 296.253 644.702 295.389 644.118C294.524 643.525 293.535 643.228 292.42 643.228C290.753 643.228 289.394 643.884 288.342 645.196C287.29 646.498 286.764 648.207 286.764 650.321V650.665ZM311.67 643.54C311.274 643.467 310.852 643.431 310.404 643.431C309.238 643.431 308.248 643.759 307.436 644.415C306.633 645.061 306.061 646.004 305.717 647.243V658.853H303.857V641.946H305.686L305.717 644.634C306.706 642.634 308.295 641.634 310.482 641.634C311.003 641.634 311.415 641.702 311.717 641.837L311.67 643.54ZM328.232 650.571C328.232 653.207 327.649 655.301 326.482 656.853C325.316 658.394 323.753 659.165 321.795 659.165C319.482 659.165 317.712 658.353 316.482 656.728V665.353H314.623V641.946H316.357L316.451 644.337C317.67 642.535 319.436 641.634 321.748 641.634C323.769 641.634 325.352 642.4 326.498 643.931C327.654 645.462 328.232 647.587 328.232 650.306V650.571ZM326.357 650.243C326.357 648.087 325.915 646.384 325.029 645.134C324.144 643.884 322.91 643.259 321.326 643.259C320.18 643.259 319.196 643.535 318.373 644.087C317.55 644.639 316.92 645.441 316.482 646.493V654.603C316.93 655.571 317.571 656.311 318.404 656.821C319.238 657.332 320.222 657.587 321.357 657.587C322.93 657.587 324.154 656.962 325.029 655.712C325.915 654.452 326.357 652.629 326.357 650.243Z" fill="#948CA1"/>
</g>
<defs>
<clipPath id="clip0">
<rect width="488.358" height="576.768" fill="white" transform="translate(0.580322)"/>
</clipPath>
</defs>
</svg>
