<svg width="35" height="28" viewBox="0 0 35 28" fill="none" xmlns="http://www.w3.org/2000/svg">
<path d="M34.4539 3.31458C33.1861 3.87674 31.8238 4.25667 30.394 4.4276C31.8536 3.55279 32.9743 2.1675 33.502 0.516943C32.1145 1.34032 30.5964 1.92044 29.0134 2.23224C27.724 0.858522 25.887 0 23.8538 0C19.95 0 16.785 3.16492 16.785 7.06844C16.785 7.62253 16.8476 8.16195 16.968 8.67943C11.0934 8.38455 5.88489 5.5705 2.39845 1.29391C1.79012 2.33789 1.44155 3.55225 1.44155 4.84751C1.44155 7.29993 2.68956 9.46339 4.58614 10.7311C3.46363 10.6959 2.36581 10.3927 1.38435 9.84682C1.38394 9.87643 1.38394 9.90604 1.38394 9.93579C1.38394 13.3606 3.82048 16.2176 7.05404 16.8669C6.01313 17.15 4.9213 17.1915 3.86193 16.9881C4.76137 19.7963 7.37193 21.8399 10.465 21.8971C8.0458 23.7929 4.99784 24.923 1.68622 24.923C1.11558 24.923 0.553012 24.8895 0 24.8242C3.12817 26.8298 6.84368 28 10.8355 28C23.8374 28 30.9472 17.229 30.9472 7.8882C30.9472 7.58161 30.9404 7.27678 30.9267 6.97369C32.3106 5.97329 33.505 4.7342 34.4539 3.31458" fill="#E5E3E8"/>
</svg>
