<svg width="19" height="15" viewBox="0 0 19 15" fill="none" xmlns="http://www.w3.org/2000/svg">
<path d="M18.0869 1.74007C17.4213 2.03519 16.7062 2.23464 15.9556 2.32436C16.7218 1.86513 17.3101 1.13791 17.5871 0.271435C16.8588 0.703672 16.0618 1.00821 15.2308 1.17189C14.5539 0.450749 13.5896 6.10352e-05 12.5223 6.10352e-05C10.4729 6.10352e-05 8.81141 1.66151 8.81141 3.71069C8.81141 4.00157 8.84426 4.28474 8.9075 4.55639C5.82354 4.4016 3.08932 2.92434 1.25909 0.679307C0.939739 1.22735 0.756751 1.86484 0.756751 2.5448C0.756751 3.83221 1.41191 4.96794 2.40753 5.63341C1.81826 5.61496 1.24195 5.4558 0.726724 5.16923C0.726512 5.18477 0.726512 5.20032 0.726512 5.21593C0.726512 7.01381 2.00559 8.5136 3.70307 8.8545C3.15664 9.00311 2.58347 9.02485 2.02735 8.91808C2.49952 10.3923 3.86995 11.4651 5.49367 11.4951C4.22371 12.4903 2.62365 13.0836 0.885196 13.0836C0.585633 13.0836 0.290308 13.066 0 13.0317C1.64216 14.0846 3.59264 14.6989 5.68818 14.6989C12.5136 14.6989 16.246 9.04455 16.246 4.14103C16.246 3.98009 16.2424 3.82006 16.2352 3.66095C16.9617 3.13579 17.5887 2.48532 18.0869 1.74007" fill="#4B4554"/>
</svg>
