<svg width="36" height="35" viewBox="0 0 36 35" fill="none" xmlns="http://www.w3.org/2000/svg">
<path d="M26.8252 12.4375C26.2069 12.7185 25.5405 12.9032 24.8501 12.9915C25.5566 12.566 26.1026 11.8915 26.3595 11.0806C25.6931 11.4821 24.9544 11.7631 24.1756 11.9236C23.5414 11.2332 22.6502 10.8317 21.6385 10.8317C19.7517 10.8317 18.2102 12.3733 18.2102 14.2761C18.2102 14.5491 18.2423 14.814 18.2985 15.0629C15.4403 14.9184 12.8951 13.5455 11.201 11.466C10.904 11.9718 10.7353 12.566 10.7353 13.1922C10.7353 14.3885 11.3375 15.4483 12.2689 16.0505C11.6988 16.0505 11.1689 15.8899 10.7032 15.649C10.7032 15.649 10.7032 15.649 10.7032 15.6731C10.7032 17.3431 11.8915 18.7401 13.4652 19.0533C13.1761 19.1336 12.871 19.1737 12.5579 19.1737C12.3411 19.1737 12.1243 19.1496 11.9156 19.1095C12.3491 20.4663 13.6097 21.478 15.1271 21.5021C13.9549 22.4334 12.4696 22.9794 10.8478 22.9794C10.5748 22.9794 10.3018 22.9633 10.0288 22.9312C11.5543 23.9107 13.3688 24.4808 15.3118 24.4808C21.6385 24.4808 25.115 19.2299 25.115 14.6775C25.115 14.525 25.115 14.3805 25.107 14.2279C25.7814 13.7462 26.3595 13.136 26.8252 12.4375Z" fill="#00ACEE"/>
</svg>
